<?xml version="1.0" encoding="UTF-8" standalone="no"?>
<svg
   xmlns:dc="http://purl.org/dc/elements/1.1/"
   xmlns:cc="http://creativecommons.org/ns#"
   xmlns:rdf="http://www.w3.org/1999/02/22-rdf-syntax-ns#"
   xmlns:svg="http://www.w3.org/2000/svg"
   xmlns="http://www.w3.org/2000/svg"
   xmlns:sodipodi="http://sodipodi.sourceforge.net/DTD/sodipodi-0.dtd"
   xmlns:inkscape="http://www.inkscape.org/namespaces/inkscape"
   version="1.0"
   width="1280.000000pt"
   height="720.000000pt"
   viewBox="0 0 1280.000000 720.000000"
   preserveAspectRatio="xMidYMid meet"
   id="svg8"
   sodipodi:docname="airplane.svg"
   inkscape:version="1.0.1 (3bc2e813f5, 2020-09-07)">
  <defs
     id="defs12" />
  <sodipodi:namedview
     pagecolor="#ffffff"
     bordercolor="#666666"
     borderopacity="1"
     objecttolerance="10"
     gridtolerance="10"
     guidetolerance="10"
     inkscape:pageopacity="0"
     inkscape:pageshadow="2"
     inkscape:window-width="1366"
     inkscape:window-height="715"
     id="namedview10"
     showgrid="false"
     inkscape:zoom="0.57083333"
     inkscape:cx="853.33333"
     inkscape:cy="480"
     inkscape:window-x="-8"
     inkscape:window-y="-8"
     inkscape:window-maximized="1"
     inkscape:current-layer="svg8" />
  <metadata
     id="metadata2">
Created by potrace 1.15, written by Peter Selinger 2001-2017
<rdf:RDF>
  <cc:Work
     rdf:about="">
    <dc:format>image/svg+xml</dc:format>
    <dc:type
       rdf:resource="http://purl.org/dc/dcmitype/StillImage" />
  </cc:Work>
</rdf:RDF>
</metadata>
  <g
     transform="translate(0.000000,720.000000) scale(0.100000,-0.100000)"
     fill="#000000"
     stroke="none"
     id="g6"
     style="fill:#ffffff;fill-opacity:1">
    <path
       d="M10705 6049 c-82 -5 -160 -11 -172 -14 -13 -3 -364 -344 -780 -758 -836 -829 -809 -806 -961 -832 -389 -68 -2480 -324 -2558 -313 l-22 3 18 65 c10 36 30 106 44 155 41 141 87 382 84 433 -3 41 -7 48 -31 56 -64 23 -248 -90 -436 -268 -232 -219 -410 -375 -433 -381 -13 -2 -54 -11 -91 -20 -38 -8 -130 -35 -205 -59 l-137 -44 -270 -11 c-419 -18 -864 -56 -1415 -121 -437 -52 -1254 -162 -1621 -219 l-117 -18 -78 -67 c-44 -37 -98 -78 -120 -89 -23 -12 -65 -49 -93 -82 -50 -57 -293 -241 -658 -497 -157 -112 -194 -155 -201 -242 -5 -61 18 -101 86 -153 55 -42 93 -53 417 -119 833 -169 788 -166 1320 -90 215 30 532 74 705 96 173 22 396 51 495 65 293 40 327 43 642 70 291 24 331 25 1115 25 l813 0 -50 -29 c-27 -15 -92 -54 -143 -85 -87 -54 -98 -58 -170 -63 -69 -6 -80 -9 -109 -38 -41 -41 -57 -101 -50 -192 11 -146 71 -272 146 -303 33 -13 13 -17 346 66 275 69 312 81 341 114 19 21 66 43 187 86 89 32 167 65 174 74 7 8 13 29 13 46 0 18 8 39 20 49 26 24 25 30 -7 44 -34 15 -71 85 -54 104 11 14 48 32 216 103 l110 46 700 -17 c556 -14 704 -20 720 -31 11 -8 27 -14 37 -14 33 0 18 -15 -40 -39 -31 -13 -80 -34 -108 -47 -104 -47 -151 -62 -224 -69 -41 -4 -86 -12 -100 -17 -122 -46 -156 -259 -69 -429 34 -68 126 -139 178 -139 15 0 456 121 605 166 10 4 35 20 55 38 23 20 106 61 225 111 171 72 190 82 204 112 13 27 14 40 3 87 -14 63 -46 96 -92 96 -65 0 -23 36 112 96 l104 46 715 -12 c393 -6 945 -20 1226 -30 284 -10 528 -14 550 -10 162 33 318 72 366 90 61 22 120 65 236 170 68 60 87 93 60 102 -26 9 -185 -46 -433 -150 l-120 -50 -465 33 c-453 33 -1533 109 -1995 140 -338 23 -1156 84 -1340 100 -140 12 -828 104 -910 122 -28 6 -27 7 30 25 33 10 211 56 395 103 432 108 662 187 1420 483 619 243 797 315 970 395 l185 86 285 15 c157 9 449 23 650 31 201 8 406 16 455 19 77 3 189 23 310 55 21 5 -15 10 -117 15 -81 4 -151 5 -156 2 -11 -6 -601 21 -722 34 -52 6 -126 10 -165 10 -121 0 -113 -12 -107 161 l5 149 -24 -1 c-13 0 -59 -6 -101 -13 -43 -7 -78 -9 -78 -5 0 10 164 457 315 859 148 395 195 527 188 534 -7 7 -43 6 -248 -5z"
       id="path4"
       style="fill:#ffffff;fill-opacity:1" />
  </g>
</svg>
