<?xml version="1.0" encoding="UTF-8" standalone="no"?>
<svg
   xmlns:dc="http://purl.org/dc/elements/1.1/"
   xmlns:cc="http://creativecommons.org/ns#"
   xmlns:rdf="http://www.w3.org/1999/02/22-rdf-syntax-ns#"
   xmlns:svg="http://www.w3.org/2000/svg"
   xmlns="http://www.w3.org/2000/svg"
   xmlns:sodipodi="http://sodipodi.sourceforge.net/DTD/sodipodi-0.dtd"
   xmlns:inkscape="http://www.inkscape.org/namespaces/inkscape"
   version="1.0"
   width="1280.000000pt"
   height="697.000000pt"
   viewBox="0 0 1280.000000 697.000000"
   preserveAspectRatio="xMidYMid meet"
   id="svg8"
   sodipodi:docname="cloud-2.svg"
   inkscape:version="1.0.1 (3bc2e813f5, 2020-09-07)">
  <defs
     id="defs12" />
  <sodipodi:namedview
     pagecolor="#ffffff"
     bordercolor="#666666"
     borderopacity="1"
     objecttolerance="10"
     gridtolerance="10"
     guidetolerance="10"
     inkscape:pageopacity="0"
     inkscape:pageshadow="2"
     inkscape:window-width="820"
     inkscape:window-height="480"
     id="namedview10"
     showgrid="false"
     inkscape:zoom="0.58967001"
     inkscape:cx="853.33333"
     inkscape:cy="464.66667"
     inkscape:window-x="0"
     inkscape:window-y="0"
     inkscape:window-maximized="0"
     inkscape:current-layer="svg8" />
  <metadata
     id="metadata2">
Created by potrace 1.15, written by Peter Selinger 2001-2017
<rdf:RDF>
  <cc:Work
     rdf:about="">
    <dc:format>image/svg+xml</dc:format>
    <dc:type
       rdf:resource="http://purl.org/dc/dcmitype/StillImage" />
  </cc:Work>
</rdf:RDF>
</metadata>
  <g
     transform="translate(0.000000,697.000000) scale(0.100000,-0.100000)"
     fill="#000000"
     stroke="none"
     id="g6"
     style="fill:#ffffff;fill-opacity:1">
    <path
       d="M6195 6960 c-663 -68 -1238 -329 -1677 -763 -84 -82 -233 -252 -255 -290 -7 -13 -22 -11 -103 11 -85 22 -115 25 -280 26 -144 1 -203 -3 -268 -17 -263 -58 -485 -177 -684 -366 -150 -143 -253 -281 -344 -464 -26 -50 -47 -93 -48 -94 -1 -1 -29 4 -61 12 -183 42 -276 50 -560 50 -301 -1 -408 -12 -634 -70 -548 -139 -978 -452 -1171 -850 -224 -462 -91 -1003 335 -1365 232 -197 450 -307 834 -419 21 -6 27 -18 37 -71 8 -35 30 -98 49 -139 138 -291 480 -523 1045 -711 l175 -58 11 -54 c24 -120 72 -220 156 -325 95 -120 258 -235 428 -300 l97 -38 27 -55 c96 -200 373 -364 790 -470 949 -240 2354 -161 2979 168 101 53 229 152 271 211 22 31 39 42 65 47 187 30 384 141 491 277 l45 57 265 0 c1541 1 2868 343 3314 854 61 70 130 173 147 221 l12 32 114 16 c398 57 729 291 895 632 177 366 129 789 -126 1112 -154 194 -385 340 -639 404 -71 18 -87 25 -82 38 13 33 6 388 -10 501 -51 367 -181 710 -380 1006 -108 161 -184 251 -326 389 -192 187 -366 311 -596 428 -283 143 -565 226 -877 257 -149 16 -473 8 -616 -15 -282 -44 -589 -149 -821 -280 -53 -30 -101 -55 -106 -55 -5 0 -58 33 -119 73 -333 220 -716 363 -1139 427 -161 24 -513 35 -660 20z"
       id="path4"
       style="fill:#ffffff;fill-opacity:1" />
  </g>
</svg>
