<?xml version="1.0" encoding="UTF-8" standalone="no"?>
<svg
   xmlns:dc="http://purl.org/dc/elements/1.1/"
   xmlns:cc="http://creativecommons.org/ns#"
   xmlns:rdf="http://www.w3.org/1999/02/22-rdf-syntax-ns#"
   xmlns:svg="http://www.w3.org/2000/svg"
   xmlns="http://www.w3.org/2000/svg"
   xmlns:sodipodi="http://sodipodi.sourceforge.net/DTD/sodipodi-0.dtd"
   xmlns:inkscape="http://www.inkscape.org/namespaces/inkscape"
   version="1.0"
   width="877.000000pt"
   height="1280.000000pt"
   viewBox="0 0 877.000000 1280.000000"
   preserveAspectRatio="xMidYMid meet"
   id="svg8"
   sodipodi:docname="eagle.svg"
   inkscape:version="1.0.1 (3bc2e813f5, 2020-09-07)">
  <defs
     id="defs12" />
  <sodipodi:namedview
     pagecolor="#ffffff"
     bordercolor="#666666"
     borderopacity="1"
     objecttolerance="10"
     gridtolerance="10"
     guidetolerance="10"
     inkscape:pageopacity="0"
     inkscape:pageshadow="2"
     inkscape:window-width="1366"
     inkscape:window-height="715"
     id="namedview10"
     showgrid="false"
     inkscape:zoom="0.32109375"
     inkscape:cx="584.66667"
     inkscape:cy="853.33333"
     inkscape:window-x="-8"
     inkscape:window-y="-8"
     inkscape:window-maximized="1"
     inkscape:current-layer="svg8" />
  <metadata
     id="metadata2">
Created by potrace 1.15, written by Peter Selinger 2001-2017
<rdf:RDF>
  <cc:Work
     rdf:about="">
    <dc:format>image/svg+xml</dc:format>
    <dc:type
       rdf:resource="http://purl.org/dc/dcmitype/StillImage" />
  </cc:Work>
</rdf:RDF>
</metadata>
  <g
     transform="translate(0.000000,1280.000000) scale(0.100000,-0.100000)"
     fill="#000000"
     stroke="none"
     id="g6"
     style="fill:#ffffff;fill-opacity:1">
    <path
       d="M2002 9424 c-12 -8 -22 -21 -22 -28 0 -8 -20 -19 -44 -25 -46 -11 -56 -26 -56 -86 0 -36 7 -48 38 -64 26 -14 28 -38 6 -69 -8 -12 -14 -37 -12 -55 3 -27 7 -33 32 -35 30 -4 30 -3 10 -99 -5 -25 -2 -33 15 -42 11 -6 32 -9 46 -5 30 7 31 -2 5 -36 -11 -14 -20 -28 -20 -32 0 -16 38 -7 70 17 46 34 59 19 32 -36 -12 -23 -19 -46 -16 -50 2 -5 21 -11 42 -15 20 -3 60 -21 87 -40 28 -18 79 -45 115 -59 36 -14 118 -51 182 -83 113 -55 118 -58 128 -97 12 -44 24 -71 42 -97 10 -14 10 -27 -1 -65 -20 -72 -23 -171 -6 -228 7 -27 16 -67 19 -89 3 -21 14 -62 25 -90 10 -28 27 -78 36 -111 22 -78 41 -109 63 -99 9 4 62 7 118 8 l100 1 -19 -33 c-15 -25 -17 -36 -8 -45 6 -6 11 -18 11 -26 0 -9 11 -38 25 -66 13 -27 27 -76 31 -108 4 -32 13 -65 21 -72 10 -11 11 -19 3 -34 -13 -25 -13 -98 0 -106 6 -3 10 -19 10 -35 0 -16 5 -32 11 -36 6 -3 19 -25 29 -49 14 -33 30 -49 70 -71 28 -15 58 -41 66 -56 8 -15 22 -29 32 -30 9 0 22 -2 29 -2 6 -1 21 -13 32 -28 28 -35 78 -65 124 -73 28 -5 37 -12 37 -27 0 -10 12 -31 27 -46 21 -21 26 -35 24 -62 -2 -38 26 -75 64 -82 13 -2 21 -14 26 -36 4 -18 14 -41 23 -51 16 -18 15 -21 -29 -58 -32 -27 -72 -48 -130 -67 -81 -26 -85 -26 -111 -10 -19 13 -53 19 -118 22 l-91 4 24 -26 c14 -14 22 -28 19 -31 -3 -3 -148 40 -323 94 -246 78 -322 98 -337 90 -21 -11 -15 -29 10 -29 28 0 162 -33 162 -40 0 -4 -22 -10 -50 -13 -27 -3 -60 -11 -72 -18 -22 -12 -19 -14 42 -36 l65 -23 -50 6 c-27 3 -74 12 -104 20 -67 19 -85 13 -78 -24 4 -15 10 -47 15 -72 5 -25 11 -52 13 -60 3 -10 -8 -16 -39 -20 -50 -7 -66 -25 -49 -52 15 -24 42 -32 95 -29 25 2 42 -2 42 -8 0 -7 37 -11 106 -11 81 0 113 4 134 17 26 15 31 15 72 0 24 -10 62 -35 85 -56 l40 -39 -32 5 c-49 8 -142 -23 -215 -71 -36 -24 -89 -48 -120 -56 -65 -15 -96 -29 -66 -30 16 0 13 -6 -17 -34 -20 -18 -37 -41 -37 -49 0 -14 4 -14 35 -1 45 19 45 19 39 -16 -6 -27 -4 -30 18 -30 14 0 37 -11 52 -25 17 -16 39 -25 59 -25 l32 0 -22 -18 c-27 -21 -83 -91 -83 -104 0 -5 19 7 42 26 45 39 68 45 68 21 0 -31 29 -72 60 -85 19 -8 30 -20 30 -32 0 -22 51 -78 72 -78 7 0 21 -11 30 -24 17 -23 17 -24 -12 -36 -57 -24 -150 -135 -150 -180 0 -5 23 -10 53 -10 64 0 73 -6 106 -66 32 -59 48 -65 62 -25 14 39 60 64 117 64 23 0 42 4 42 7 0 4 35 79 77 166 l77 159 6 -112 c3 -62 10 -117 16 -123 6 -6 27 -13 48 -17 30 -5 41 -1 61 17 14 13 25 18 25 12 0 -7 -14 -21 -32 -32 -26 -16 -29 -20 -15 -26 14 -5 9 -12 -27 -34 -75 -48 -100 -109 -53 -131 25 -12 75 -75 106 -137 24 -46 59 -58 68 -22 7 26 23 25 67 -5 20 -14 41 -25 46 -25 17 0 11 30 -11 61 -28 40 -76 148 -89 200 -6 27 -7 70 -3 109 8 61 10 65 38 71 27 6 92 34 137 59 27 15 27 14 12 -37 -8 -25 -14 -59 -14 -75 0 -26 2 -28 28 -22 74 18 77 28 62 209 -6 75 -9 139 -7 142 7 7 56 -79 83 -145 18 -46 28 -58 48 -60 21 -3 26 -9 26 -33 0 -23 5 -29 20 -29 27 0 97 36 103 52 3 7 -22 64 -55 127 l-60 113 32 -18 c18 -11 52 -36 76 -57 38 -33 54 -40 108 -47 36 -4 69 -11 75 -15 30 -18 4 24 -47 78 -69 73 -207 238 -222 266 -9 18 -6 21 27 30 21 6 46 11 55 11 9 0 56 14 104 31 153 56 273 153 350 284 l25 43 102 4 c89 3 110 7 162 33 49 24 73 29 130 30 67 0 96 10 197 63 4 2 15 -20 25 -47 10 -28 21 -51 25 -51 12 0 56 72 64 103 l7 29 146 -6 c240 -10 325 -17 338 -28 7 -5 31 -7 57 -3 37 6 50 3 71 -13 14 -12 63 -33 108 -48 147 -48 174 -63 211 -114 23 -32 46 -52 69 -59 33 -11 67 -57 67 -90 0 -6 12 -11 26 -11 16 0 40 -13 63 -34 20 -19 60 -56 89 -82 56 -51 48 -49 114 -16 4 2 8 -11 10 -29 2 -26 10 -34 42 -47 32 -13 39 -13 47 -1 6 11 14 7 39 -16 26 -25 33 -28 50 -17 17 11 20 10 20 -7 0 -32 47 -61 97 -61 43 0 44 0 41 33 -4 39 16 53 20 15 2 -16 8 -28 14 -28 5 0 24 -12 41 -26 25 -21 36 -24 67 -19 32 5 41 2 68 -24 30 -30 82 -43 82 -20 0 22 -82 129 -137 179 -129 115 -357 246 -681 390 -114 51 -259 116 -322 145 -127 58 -291 114 -417 141 -79 17 -82 18 -99 56 -16 36 -44 52 -44 26 -1 -37 -14 -39 -136 -12 -65 14 -128 31 -139 37 -11 6 -42 12 -70 13 -27 0 -70 6 -95 13 -48 13 -83 10 -165 -16 -50 -15 -52 -15 -103 11 -58 29 -88 32 -116 11 -28 -21 -60 -19 -149 12 l-79 27 -17 -21 c-19 -26 -91 -33 -136 -14 -16 7 -74 15 -128 18 l-98 6 -71 95 -70 95 -33 146 c-37 163 -71 289 -110 401 -14 41 -48 183 -75 314 -55 268 -66 296 -189 501 -43 72 -82 140 -85 153 -4 12 -13 22 -20 22 -7 0 -33 28 -57 62 -113 161 -316 367 -534 544 -209 167 -516 332 -705 379 -63 15 -125 34 -137 41 -29 18 -43 18 -71 -2z"
       id="path4"
       style="fill:#ffffff;fill-opacity:1" />
  </g>
</svg>
